<svg fill="none" xmlns="http://www.w3.org/2000/svg" viewBox="0 0 41 42"><path fill-rule="evenodd" clip-rule="evenodd" d="M40.186 10.151a.64.64 0 0 1 .022.166v8.696a.634.634 0 0 1-.318.55l-7.3 4.203v8.329c0 .226-.12.436-.316.55l-15.236 8.77c-.035.02-.073.033-.11.047-.015.004-.029.013-.044.017a.637.637 0 0 1-.325 0c-.017-.005-.033-.014-.05-.02-.035-.013-.07-.025-.104-.044l-15.233-8.77a.635.635 0 0 1-.318-.55V6.006c0-.057.007-.112.022-.166.004-.019.016-.035.022-.053.012-.034.023-.068.04-.099.012-.02.03-.037.044-.056.018-.025.035-.052.056-.074.018-.018.042-.031.063-.047.023-.02.043-.04.07-.055l7.617-4.385a.636.636 0 0 1 .634 0l7.617 4.385h.001c.026.016.047.036.07.054.02.016.044.03.062.047.022.023.038.05.057.075.014.019.032.036.043.056.018.032.028.065.041.099.006.018.018.034.022.053.015.054.022.11.023.166v16.295l6.346-3.655v-8.33a.64.64 0 0 1 .023-.165c.005-.019.015-.035.022-.054.013-.033.024-.067.041-.098.012-.02.03-.037.043-.056.019-.026.035-.052.057-.074.018-.018.041-.032.062-.047.023-.02.044-.04.07-.055l7.618-4.385a.635.635 0 0 1 .634 0l7.617 4.385c.026.016.047.036.07.054.02.016.044.03.062.047.022.023.038.05.057.075.014.019.032.036.043.056.018.031.028.065.041.098.007.019.017.035.022.054Zm-1.247 8.495v-7.231l-2.666 1.534-3.682 2.12v7.232l6.349-3.655h-.001Zm-7.617 13.082V24.49l-3.622 2.07-10.343 5.902v7.305l13.965-8.04ZM2.123 7.104v24.624l13.964 8.039v-7.303l-7.295-4.128-.002-.002-.004-.002c-.024-.014-.045-.035-.068-.052-.02-.016-.042-.029-.06-.046l-.002-.002c-.02-.02-.034-.045-.052-.067-.016-.021-.035-.04-.047-.062l-.001-.002c-.014-.024-.023-.052-.033-.08-.01-.023-.024-.045-.03-.07v-.002c-.008-.03-.01-.061-.013-.092-.003-.024-.01-.048-.01-.072V10.758L4.79 8.638 2.123 7.104v-.001Zm6.983-4.75L2.76 6.005 9.104 9.66l6.346-3.654-6.346-3.652h.002Zm3.3 22.797 3.682-2.12V7.105l-2.666 1.534-3.682 2.12v15.928l2.666-1.535Zm19.55-18.487-6.345 3.653 6.346 3.653 6.344-3.654-6.344-3.652Zm-.634 8.405-3.682-2.12-2.666-1.534v7.231l3.682 2.12 2.666 1.535v-7.232ZM16.721 31.366l9.307-5.314 4.653-2.655-6.34-3.65-7.301 4.202-6.654 3.83 6.335 3.587Z" fill="#fff"/></svg>