<svg xmlns="http://www.w3.org/2000/svg" viewBox="0 0 260.5 226.78"><defs><style>.cls-1{fill:#fff;}</style></defs><g id="Livello_2" data-name="Livello 2"><g id="Livello_11" data-name="Livello 11"><polygon class="cls-1" points="0 226.78 15.44 178.57 82.51 178.57 97.95 226.78 0 226.78"/><polygon class="cls-1" points="28.15 138.89 69.8 138.89 53.46 87.86 44.5 87.86 28.15 138.89"/><path class="cls-1" d="M223.3,112.06a59.51,59.51,0,0,0-28-112L98,0l15.44,48.19h64.21a19.84,19.84,0,1,1,0,39.68h-51.5l16.34,51h38a19.84,19.84,0,0,1,0,39.68H155.18l12.08,37.72,3.35,10.47H201A59.53,59.53,0,0,0,223.3,112.06Z"/></g></g></svg>